<svg width="16" height="16" viewBox="0 0 16 16" fill="none" xmlns="http://www.w3.org/2000/svg">
<path fill-rule="evenodd" clip-rule="evenodd" d="M6.01178 0.966149C5.93738 0.886313 5.84767 0.822278 5.74799 0.777865C5.64832 0.733452 5.54072 0.709571 5.43161 0.707646C5.3225 0.705721 5.21413 0.725792 5.11294 0.766661C5.01176 0.80753 4.91985 0.86836 4.84269 0.945522C4.76552 1.02268 4.70469 1.1146 4.66382 1.21578C4.62295 1.31696 4.60288 1.42534 4.60481 1.53445C4.60673 1.64355 4.63062 1.75115 4.67503 1.85083C4.71944 1.95051 4.78348 2.04022 4.86331 2.11461L6.79186 4.04316V7.49938H3.33564L1.40709 5.57083C1.25305 5.4273 1.04931 5.34915 0.838795 5.35287C0.628279 5.35658 0.427422 5.44186 0.278542 5.59074C0.129661 5.73962 0.0443799 5.94048 0.0406656 6.151C0.0369513 6.36151 0.115094 6.56525 0.25863 6.71929L1.85131 8.31197L0.25863 9.90465C0.178793 9.97904 0.114759 10.0688 0.0703458 10.1684C0.0259329 10.2681 0.00205153 10.3757 0.000126462 10.4848C-0.0017986 10.5939 0.018272 10.7023 0.059141 10.8035C0.10001 10.9047 0.16084 10.9966 0.238002 11.0737C0.315165 11.1509 0.407078 11.2117 0.50826 11.2526C0.609442 11.2935 0.717819 11.3135 0.826926 11.3116C0.936033 11.3097 1.04363 11.2858 1.14331 11.2414C1.24299 11.197 1.3327 11.1329 1.40709 11.0531L3.33564 9.12456H6.79186V12.5808L4.86331 14.5093C4.78348 14.5837 4.71944 14.6734 4.67503 14.7731C4.63062 14.8728 4.60673 14.9804 4.60481 15.0895C4.60288 15.1986 4.62295 15.307 4.66382 15.4082C4.70469 15.5093 4.76552 15.6013 4.84269 15.6784C4.91985 15.7556 5.01176 15.8164 5.11294 15.8573C5.21413 15.8982 5.3225 15.9182 5.43161 15.9163C5.54072 15.9144 5.64832 15.8905 5.74799 15.8461C5.84767 15.8017 5.93738 15.7376 6.01178 15.6578L7.60445 14.0651L9.19713 15.6578C9.35117 15.8013 9.55491 15.8795 9.76543 15.8758C9.97594 15.872 10.1768 15.7868 10.3257 15.6379C10.4746 15.489 10.5598 15.2881 10.5636 15.0776C10.5673 14.8671 10.4891 14.6634 10.3456 14.5093L8.41704 12.5808V9.12456H11.8733L13.8018 11.0531C13.8762 11.1329 13.9659 11.197 14.0656 11.2414C14.1653 11.2858 14.2729 11.3097 14.382 11.3116C14.4911 11.3135 14.5995 11.2935 14.7006 11.2526C14.8018 11.2117 14.8937 11.1509 14.9709 11.0737C15.0481 10.9966 15.1089 10.9047 15.1498 10.8035C15.1906 10.7023 15.2107 10.5939 15.2088 10.4848C15.2069 10.3757 15.183 10.2681 15.1386 10.1684C15.0941 10.0688 15.0301 9.97904 14.9503 9.90465L13.3576 8.31197L14.9503 6.71929C15.0938 6.56525 15.172 6.36151 15.1682 6.151C15.1645 5.94048 15.0792 5.73962 14.9304 5.59074C14.7815 5.44186 14.5806 5.35658 14.3701 5.35287C14.1596 5.34915 13.9559 5.4273 13.8018 5.57083L11.8733 7.49938H8.41704V4.04316L10.3456 2.11461C10.4891 1.96057 10.5673 1.75683 10.5636 1.54631C10.5598 1.3358 10.4746 1.13494 10.3257 0.986061C10.1768 0.83718 9.97594 0.751899 9.76543 0.748185C9.55491 0.744471 9.35117 0.822613 9.19713 0.966149L7.60445 2.55883L6.01178 0.966149ZM3.23813 3.94565C3.39049 3.79348 3.59702 3.708 3.81236 3.708C4.0277 3.708 4.23423 3.79348 4.38659 3.94565L5.47005 5.0291C5.61358 5.18315 5.69173 5.38688 5.68801 5.5974C5.6843 5.80792 5.59902 6.00877 5.45014 6.15766C5.30125 6.30654 5.1004 6.39182 4.88988 6.39553C4.67937 6.39925 4.47563 6.3211 4.32159 6.17757L3.23813 5.09411C3.08596 4.94175 3.00049 4.73522 3.00049 4.51988C3.00049 4.30454 3.08596 4.09801 3.23813 3.94565ZM5.47005 11.5948C5.54988 11.5204 5.61392 11.4307 5.65833 11.3311C5.70274 11.2314 5.72663 11.1238 5.72855 11.0147C5.73048 10.9056 5.71041 10.7972 5.66954 10.696C5.62867 10.5948 5.56784 10.5029 5.49067 10.4258C5.41351 10.3486 5.3216 10.2878 5.22042 10.2469C5.11924 10.206 5.01086 10.186 4.90175 10.1879C4.79264 10.1898 4.68504 10.2137 4.58537 10.2581C4.48569 10.3025 4.39598 10.3665 4.32159 10.4464L3.23813 11.5298C3.15829 11.6042 3.09426 11.6939 3.04985 11.7936C3.00543 11.8933 2.98155 12.0009 2.97963 12.11C2.9777 12.2191 2.99777 12.3275 3.03864 12.4287C3.07951 12.5298 3.14034 12.6218 3.2175 12.6989C3.29467 12.7761 3.38658 12.8369 3.48776 12.8778C3.58894 12.9187 3.69732 12.9387 3.80643 12.9368C3.91553 12.9349 4.02314 12.911 4.12281 12.8666C4.22249 12.8222 4.3122 12.7581 4.38659 12.6783L5.47005 11.5948ZM11.9708 3.94565C12.1229 4.09801 12.2084 4.30454 12.2084 4.51988C12.2084 4.73522 12.1229 4.94175 11.9708 5.09411L10.8873 6.17757C10.8129 6.2574 10.7232 6.32144 10.6235 6.36585C10.5239 6.41026 10.4163 6.43414 10.3072 6.43607C10.198 6.43799 10.0897 6.41792 9.98849 6.37706C9.88731 6.33619 9.79539 6.27536 9.71823 6.19819C9.64107 6.12103 9.58024 6.02912 9.53937 5.92794C9.4985 5.82675 9.47843 5.71838 9.48036 5.60927C9.48228 5.50016 9.50616 5.39256 9.55058 5.29288C9.59499 5.19321 9.65902 5.1035 9.73886 5.0291L10.8223 3.94565C10.9747 3.79348 11.1812 3.708 11.3965 3.708C11.6119 3.708 11.8184 3.79348 11.9708 3.94565ZM10.8873 10.4464C10.8129 10.3665 10.7232 10.3025 10.6235 10.2581C10.5239 10.2137 10.4163 10.1898 10.3072 10.1879C10.198 10.186 10.0897 10.206 9.98849 10.2469C9.88731 10.2878 9.79539 10.3486 9.71823 10.4258C9.64107 10.5029 9.58024 10.5948 9.53937 10.696C9.4985 10.7972 9.47843 10.9056 9.48036 11.0147C9.48228 11.1238 9.50616 11.2314 9.55058 11.3311C9.59499 11.4307 9.65902 11.5204 9.73886 11.5948L10.8223 12.6783C10.8967 12.7581 10.9864 12.8222 11.0861 12.8666C11.1858 12.911 11.2934 12.9349 11.4025 12.9368C11.5116 12.9387 11.62 12.9187 11.7211 12.8778C11.8223 12.8369 11.9142 12.7761 11.9914 12.6989C12.0686 12.6218 12.1294 12.5298 12.1703 12.4287C12.2111 12.3275 12.2312 12.2191 12.2293 12.11C12.2274 12.0009 12.2035 11.8933 12.1591 11.7936C12.1146 11.6939 12.0506 11.6042 11.9708 11.5298L10.8873 10.4464Z" fill="#606060"/>
</svg>
