<svg width="17" height="17" viewBox="0 0 17 17" fill="none" xmlns="http://www.w3.org/2000/svg">
<path d="M2.52806 13.483C2.52806 13.483 0 6.7415 0 3.37075C0 0 1.68537 0 1.68537 0H2.52806C2.52806 0 3.37075 0 3.37075 0.842687C3.37075 1.68537 2.52806 1.68537 2.52806 3.37075C2.52806 5.05612 5.05612 6.7415 5.05612 9.26956C5.05612 11.7976 2.52806 13.483 2.52806 13.483ZM10.9549 12.6403C11.8819 12.6403 12.6403 13.3987 12.6403 14.3257V15.1684C12.6403 16.0953 11.8819 16.8537 10.9549 16.8537H5.89881C4.21344 16.8537 3.37075 15.3369 3.37075 15.3369C3.20221 15.1684 3.11794 14.8313 3.37075 14.6628C3.37075 14.6628 5.89881 12.556 6.7415 12.556H10.9549M9.85944 1.17976L8.67968 4.0449L9.85944 6.91003L8.17406 10.9549L6.7415 9.77517L7.92126 6.91003L6.7415 4.0449L8.42687 0L9.85944 1.17976ZM13.3987 1.17976L12.219 4.0449L13.3987 6.91003L11.7133 10.9549L10.2808 9.77517L11.4605 6.91003L10.2808 4.0449L11.9662 0L13.3987 1.17976ZM16.8537 1.17976L15.674 4.0449L16.8537 6.91003L15.1684 10.9549L13.7358 9.77517L14.9156 6.91003L13.7358 4.0449L15.4212 0L16.8537 1.17976Z" fill="#606060"/>
</svg>
